#!OML:ASF H:\Dans Jumps\Project 1\Capture day 1\Session 1\subject.ASF
:FULLY-SPECIFIED
:DEGREES
402
root 0.552638 17.745 7.49192 9.74162 -1.37456 -0.927613
lowerback -0.991644 -0.367516 -0.975737
upperback 3.4903 -0.525815 1.80042
thorax 4.17782 -0.328292 2.38104
lowerneck -11.8235 0.679024 -1.87686
upperneck 35.0733 0.994899 1.36936
head 13.8605 0.357141 1.02931
rclavicle -1.49089e-015 -3.97569e-016
rhumerus -28.4799 -15.7299 -78.1471
rradius 22.1956
rwrist 39.7771
rhand -15.1809 -26.0608
rfingers 7.12502
rthumb 10.9903 -55.7531
lclavicle -1.49089e-015 -3.97569e-016
lhumerus -23.1848 -3.77408 90.0737
lradius 19.5698
lwrist 9.01936
lhand -25.1395 -5.27387
lfingers 7.12502
lthumb 1.37685 24.7014
rfemur -13.3806 -1.07376 18.3615
rtibia 19.3661
rfoot -13.3019 -2.25358
rtoes 13.9664
lfemur -13.6949 8.08541 -19.0269
ltibia 17.9211
lfoot -10.775 2.44477
ltoes 0.918574
403
root 0.549682 17.7449 7.489 9.70043 -1.28951 -0.971047
lowerback -0.942547 -0.368533 -0.909263
upperback 3.4877 -0.529924 1.81999
thorax 4.14692 -0.328183 2.3639
lowerneck -11.839 0.658197 -1.88187
upperneck 35.161 0.963241 1.37872
head 13.9041 0.343568 1.03067
rclavicle -4.17448e-015 -1.98785e-015
rhumerus -28.3097 -15.5043 -78.2898
rradius 22.2881
rwrist 39.5632
rhand -15.2162 -25.9807
rfingers 7.12502
rthumb 10.9562 -55.6748
lclavicle -4.17448e-015 -1.98785e-015
lhumerus -23.2747 -4.22823 90.2866
lradius 19.6575
lwrist 9.26044
lhand -25.0499 -5.35455
lfingers 7.12502
lthumb 1.46336 24.6202
rfemur -13.3042 -1.13313 18.4289
rtibia 19.315
rfoot -13.2825 -2.25777
rtoes 13.9788
lfemur -13.6755 8.0213 -18.9579
ltibia 17.9353
lfoot -10.7774 2.46145
ltoes 0.877237
404
root 0.546686 17.7447 7.48529 9.6545 -1.21141 -1.01238
lowerback -0.881112 -0.369184 -0.845543
upperback 3.4834 -0.533286 1.83804
thorax 4.10724 -0.327701 2.34683
lowerneck -11.8531 0.639542 -1.89286
upperneck 35.2591 0.936344 1.38811
head 13.9522 0.331168 1.03393
rclavicle -3.77691e-015 7.95139e-016
rhumerus -28.1375 -15.2998 -78.4217
rradius 22.3637
rwrist 39.4176
rhand -15.2402 -25.8872
rfingers 7.12502
rthumb 10.9331 -55.5825
lclavicle -3.77691e-015 7.95139e-016
lhumerus -23.3501 -4.64593 90.4785
lradius 19.7173
lwrist 9.44085
lhand -24.9482 -5.36596
lfingers 7.12502
lthumb 1.5616 24.6081
rfemur -13.2233 -1.18586 18.4915
rtibia 19.2553
rfoot -13.2571 -2.25387
rtoes 14.0033
lfemur -13.6534 7.94367 -18.8893
ltibia 17.9516
lfoot -10.7792 2.48861
ltoes 0.835138
405
root 0.543598 17.7444 7.48098 9.60659 -1.1379 -1.0521
lowerback -0.810807 -0.369339 -0.784619
upperback 3.47611 -0.535706 1.85509
thorax 4.05939 -0.326758 2.33037
lowerneck -11.8677 0.622284 -1.90575
upperneck 35.372 0.912778 1.39535
head 14.0072 0.31954 1.03737
rclavicle -1.2921e-015 7.95139e-015
rhumerus -27.9667 -15.1141 -78.5417
rradius 22.4242
rwrist 39.3227
rhand -15.2752 -25.7909
rfingers 7.12502
rthumb 10.8993 -55.4881
lclavicle -1.2921e-015 7.95139e-015
lhumerus -23.4145 -5.00947 90.6484
lradius 19.7346
lwrist 9.53179
lhand -24.8961 -5.45782
lfingers 7.12502
lthumb 1.61195 24.5158
rfemur -13.1439 -1.23536 18.5511
rtibia 19.1968
rfoot -13.2315 -2.24431
rtoes 14.0299
lfemur -13.6282 7.86795 -18.8218
ltibia 17.9633
lfoot -10.7761 2.51283
ltoes 0.802956
406
root 0.540365 17.7441 7.47639 9.56082 -1.07107 -1.08519
lowerback -0.740782 -0.368818 -0.732918
upperback 3.46549 -0.536702 1.8694
thorax 4.00826 -0.325335 2.31633
lowerneck -11.8795 0.608595 -1.91662
upperneck 35.4971 0.895335 1.39847
head 14.0672 0.310158 1.03985
rclavicle 1.88845e-015 -9.14409e-015
rhumerus -27.7983 -14.9551 -78.6479
rradius 22.4681
rwrist 39.269
rhand -15.3042 -25.7146
rfingers 7.12502
rthumb 10.8714 -55.4132
lclavicle 1.88845e-015 -9.14409e-015
lhumerus -23.4625 -5.28063 90.7813
lradius 19.7088
lwrist 9.49036
lhand -24.8471 -5.61192
lfingers 7.12502
lthumb 1.65923 24.3614
rfemur -13.074 -1.28197 18.603
rtibia 19.1478
rfoot -13.2092 -2.23105
rtoes 14.068
lfemur -13.5995 7.79807 -18.7615
ltibia 17.9631
lfoot -10.7677 2.53115
ltoes 0.776363
407
root 0.536929 17.7438 7.47204 9.51811 -1.01113 -1.11192
lowerback -0.68164 -0.367542 -0.690416
upperback 3.4548 -0.536268 1.8809
thorax 3.96325 -0.323517 2.30457
lowerneck -11.8941 0.599596 -1.92101
upperneck 35.6356 0.885665 1.3945
head 14.1341 0.303921 1.03968
rclavicle 8.74653e-015 -5.96354e-015
rhumerus -27.6312 -14.8178 -78.7432
rradius 22.5019
rwrist 39.2409
rhand -15.338 -25.6507
rfingers 7.12502
rthumb 10.8387 -55.351
lclavicle 8.74653e-015 -5.96354e-015
lhumerus -23.4909 -5.46663 90.8776
lradius 19.6378
lwrist 9.32672
lhand -24.8626 -5.8962
lfingers 7.12502
lthumb 1.64422 24.0772
rfemur -13.0124 -1.32458 18.6482
rtibia 19.1088
rfoot -13.1929 -2.21858
rtoes 14.1048
lfemur -13.5672 7.73888 -18.7082
ltibia 17.9525
lfoot -10.7564 2.53999
ltoes 0.74912
408
root 0.533379 17.7434 7.46822 9.48558 -0.958461 -1.12412
lowerback -0.648787 -0.365384 -0.663652
upperback 3.44394 -0.534038 1.8863
thorax 3.93301 -0.321324 2.29532
lowerneck -11.9089 0.595424 -1.91194
upperneck 35.7859 0.883204 1.38014
head 14.2069 0.301096 1.03415
rclavicle -3.97569e-015 -1.07344e-014
rhumerus -27.4629 -14.7166 -78.8256
rradius 22.5189
rwrist 39.2364
rhand -15.3802 -25.6011
rfingers 7.12502
rthumb 10.798 -55.3035
lclavicle -3.97569e-015 -1.07344e-014
lhumerus -23.4962 -5.556 90.9325
lradius 19.5485
lwrist 9.0561
lhand -24.8639 -6.08563
lfingers 7.12502
lthumb 1.64299 23.8878
rfemur -12.9658 -1.37256 18.678
rtibia 19.0799
rfoot -13.1841 -2.20107
rtoes 14.1367
lfemur -13.5393 7.69315 -18.6733
ltibia 17.9343
lfoot -10.747 2.53887
ltoes 0.713935
